# xmcd
#
# Track frame offsets: 
#        150
#        16413
#        39311
#        59770
#        75999
#        98867
#        119462
#
# Disc length: 1722 seconds
#
# Revision: 1
# Processed by: cddbd v1.5.2PL0 Copyright (c) Steve Scherf et al.
# Submitted via: ExactAudioCopy v1.1
#
DISCID=5106b807
DTITLE=Various Artist - THE IDOLM@STER CINDERELLA GIRLS STARLIGHT MASTER 05 純
DTITLE=情Midnight伝説
DYEAR=2016
DGENRE=Game
TTITLE0=向井拓海、藤本里奈、松永涼、大和亜季、木村夏樹 - 純情Midnight伝説(M@STER VERSION)
TTITLE1=三村かな子 - おかしな国のおかし屋さん
TTITLE2=白坂小梅 - Bloody Festa
TTITLE3=Various Artist - 純情Midnight伝説(M@STER VERSION) オリジナル・カラオケ
TTITLE4=Various Artist - おかしな国のおかし屋さん オリジナル・カラオケ
TTITLE5=Various Artist - Bloody Festa オリジナル・カラオケ
TTITLE6=向井拓海、藤本里奈、松永涼、大和亜季、木村夏樹 - 純情Midnight伝説(GAME VERSION)
EXTD=
EXTT0=
EXTT1=
EXTT2=
EXTT3=
EXTT4=
EXTT5=
EXTT6=
PLAYORDER=
